<svg aria-hidden="true" style="position: absolute; width: 0; height: 0; overflow: hidden;" version="1.1" xmlns="http://www.w3.org/2000/svg" xmlns:xlink="http://www.w3.org/1999/xlink">
<defs>
<symbol id="logo-icon" viewBox="0 0 30 32">
<path fill="#f53838" style="fill: var(--color1, #f53838)" d="M26.938 11.804l-0.018-0.019c-0.002-0.001-0.003-0.002-0.004-0.004l-0-0-11.779-11.78-11.805 11.803c-2.060 2.071-3.333 4.925-3.333 8.077 0 6.326 5.129 11.455 11.455 11.455 1.201 0 2.359-0.185 3.447-0.528l-0.081 0.022c0.206-0.062 0.425-0.062 0.631 0 1.007 0.321 2.165 0.506 3.366 0.506 6.326 0 11.453-5.128 11.453-11.453 0-0.483-0.030-0.959-0.088-1.426l0.006 0.056c-0.326-2.639-1.507-4.955-3.252-6.709l0 0.001zM7.544 19.572c-0.112 0.112-0.181 0.266-0.181 0.437 0 0 0 0 0 0v0c0.023 2.18 0.652 4.209 1.728 5.931l-0.028-0.048c0.021 0.033 0.034 0.074 0.034 0.118 0 0.123-0.1 0.223-0.223 0.223-0.031 0-0.060-0.006-0.086-0.017l0.001 0.001c-2.493-1.069-4.207-3.502-4.207-6.335 0-1.895 0.767-3.611 2.008-4.855l8.546-8.546 8.547 8.546c1.24 1.243 2.007 2.959 2.007 4.854 0 1.898-0.769 3.616-2.013 4.86l-0 0c-0.612 0.614-1.34 1.112-2.149 1.459l-0.045 0.017c-0.024 0.010-0.052 0.015-0.082 0.015-0.124 0-0.225-0.101-0.225-0.225 0-0.042 0.012-0.082 0.032-0.116l-0.001 0.001c1.047-1.674 1.677-3.702 1.7-5.877l0-0.006c-0-0.171-0.070-0.325-0.182-0.437l-0-0-4.042-4.288c-0.038-0.030-0.087-0.049-0.14-0.049-0.124 0-0.225 0.101-0.225 0.225 0 0.039 0.010 0.075 0.027 0.107l-0.001-0.001c1.57 2.841 0.22 6.922-2.032 9.174l-0.011 0.012c-0.3 0.297-0.712 0.48-1.168 0.48s-0.868-0.183-1.168-0.481l0 0-0.010-0.012c-2.252-2.251-3.601-6.333-2.032-9.174 0.019-0.032 0.030-0.070 0.030-0.112 0-0.123-0.1-0.223-0.223-0.223-0.055 0-0.105 0.020-0.144 0.053l0-0-4.044 4.288z"></path>
</symbol>
<symbol id="icon-statistic-user" viewBox="0 0 31 32">
<path fill="#ffecec" style="fill: var(--color1, #ffecec)" d="M15.714 0.028c8.679 0 15.714 7.036 15.714 15.714s-7.036 15.714-15.714 15.714c-8.679 0-15.714-7.036-15.714-15.714s7.036-15.714 15.714-15.714z"></path>
<path fill="#f53838" style="fill: var(--color2, #f53838)" d="M15.714 15.057c1.136 0 2.057-0.921 2.057-2.057s-0.921-2.057-2.057-2.057v0c-1.136 0-2.057 0.921-2.057 2.057s0.921 2.057 2.057 2.057v0zM12.799 21.229c-1.041 0-1.918-0.875-1.52-1.837 0.741-1.754 2.447-2.963 4.435-2.963s3.694 1.209 4.423 2.931l0.012 0.032c0.398 0.962-0.479 1.837-1.52 1.837h-5.829z"></path>
</symbol>
<symbol id="icon-statistic-server" viewBox="0 0 31 32">
<path fill="#ffecec" style="fill: var(--color1, #ffecec)" d="M15.714 0.028c8.679 0 15.714 7.036 15.714 15.714s-7.036 15.714-15.714 15.714c-8.679 0-15.714-7.036-15.714-15.714s7.036-15.714 15.714-15.714z"></path>
<path fill="#f53838" style="fill: var(--color2, #f53838)" d="M20.286 10.6h-9.143c-0.631 0-1.143 0.512-1.143 1.143v0 2.286c0 0.631 0.512 1.143 1.143 1.143v0h9.143c0.631 0 1.143-0.512 1.143-1.143v0-2.286c0-0.631-0.512-1.143-1.143-1.143v0zM17.429 12.886c0 0.316-0.256 0.571-0.571 0.571s-0.571-0.256-0.571-0.571v0c0-0.316 0.256-0.571 0.571-0.571s0.571 0.256 0.571 0.571v0zM19.714 12.886c0 0.316-0.256 0.571-0.571 0.571s-0.571-0.256-0.571-0.571v0c0-0.316 0.256-0.571 0.571-0.571s0.571 0.256 0.571 0.571v0zM20.286 16.314h-9.143c-0.631 0-1.143 0.512-1.143 1.143v0 2.286c0 0.631 0.512 1.143 1.143 1.143v0h9.143c0.631 0 1.143-0.512 1.143-1.143v0-2.286c0-0.631-0.512-1.143-1.143-1.143v0zM17.429 18.6c0 0.316-0.256 0.571-0.571 0.571s-0.571-0.256-0.571-0.571v0c0-0.316 0.256-0.571 0.571-0.571s0.571 0.256 0.571 0.571v0zM19.714 18.6c0 0.316-0.256 0.571-0.571 0.571s-0.571-0.256-0.571-0.571v0c0-0.316 0.256-0.571 0.571-0.571s0.571 0.256 0.571 0.571v0z"></path>
</symbol>
<symbol id="icon-statistic-location" viewBox="0 0 32 32">
<path fill="#ffecec" style="fill: var(--color1, #ffecec)" d="M16 0.028c8.679 0 15.714 7.036 15.714 15.714s-7.036 15.714-15.714 15.714c-8.679 0-15.714-7.036-15.714-15.714s7.036-15.714 15.714-15.714z"></path>
<path fill="#f53838" style="fill: var(--color2, #f53838)" d="M20 14.029c-0.001-2.209-1.792-4-4.001-4-0.552 0-1.078 0.112-1.556 0.314l0.026-0.010c-1.462 0.617-2.469 2.038-2.469 3.695 0 0 0 0.001 0 0.001v-0c0 0.793 0.234 1.53 0.631 2.151h-0.005c1.349 2.111 3.373 5.277 3.373 5.277l3.373-5.277h-0.004c0.395-0.608 0.631-1.352 0.631-2.151v-0zM16 15.743c-0.947 0-1.714-0.768-1.714-1.714s0.768-1.714 1.714-1.714v0c0.947 0 1.714 0.768 1.714 1.714s-0.767 1.714-1.714 1.714v0z"></path>
</symbol>
<symbol id="icon-list-marker" viewBox="0 0 32 32">
<path fill="#2fab73" style="fill: var(--color1, #2fab73)" d="M15.423 0.837c-8.402 0-15.238 6.836-15.238 15.238s6.836 15.238 15.238 15.238c8.402 0 15.238-6.836 15.238-15.238s-6.836-15.238-15.238-15.238zM12.377 22.8l-4.58-4.57c-0.595-0.594-0.597-1.558-0.003-2.154s1.559-0.597 2.155-0.002l2.425 2.42 6.99-6.99c0.595-0.595 1.56-0.595 2.155 0s0.595 1.56 0 2.155l-9.141 9.141z"></path>
</symbol>
<symbol id="icon-marker" viewBox="0 0 32 32">
<path fill="#2fab73" style="fill: var(--color1, #2fab73)" d="M14.655 22.118c-0.001 0-0.002 0-0.003 0-0.353 0-0.672-0.143-0.902-0.375l-5.43-5.43c-0.244-0.233-0.396-0.561-0.396-0.924 0-0.706 0.572-1.277 1.277-1.277 0.006 0 0.012 0 0.018 0h-0.001c0.357 0.003 0.678 0.152 0.909 0.389l4.526 4.525 8.147-8.143c0.232-0.232 0.552-0.375 0.906-0.375 0.707 0 1.28 0.573 1.28 1.28 0 0.353-0.143 0.673-0.375 0.905l-9.052 9.052c-0.231 0.23-0.549 0.372-0.901 0.372-0.002 0-0.003 0-0.005 0h0z"></path>
</symbol>
<symbol id="icon-ellipse" viewBox="0 0 30 32">
<path d="M30 16.506c0 8.284-6.716 15-15 15s-15-6.716-15-15c0-8.284 6.716-15 15-15s15 6.716 15 15z"></path>
</symbol>
<symbol id="icon-union" viewBox="0 0 90 32">
<path d="M15.114 31.505c-0.038 0-0.076 0-0.114 0s-0.076 0-0.114-0h-0.992v-0.040c-7.768-0.566-13.894-7.048-13.894-14.96s6.126-14.394 13.894-14.96v-0.040l60.274 0.023c0.275-0.015 0.553-0.023 0.832-0.023 8.284 0 15 6.716 15 15s-6.716 15-15 15c-0.279 0-0.556-0.008-0.832-0.023v0.022h-59.054z"></path>
</symbol>
<symbol id="icon-arrow-left" viewBox="0 0 32 32">
<path d="M16 0c-8.837 0-16 7.163-16 16s7.163 16 16 16c8.837 0 16-7.163 16-16v0c-0.010-8.833-7.167-15.99-15.999-16h-0.001zM16 30.5c-8.008 0-14.5-6.492-14.5-14.5s6.492-14.5 14.5-14.5c8.008 0 14.5 6.492 14.5 14.5v0c-0.010 8.004-6.496 14.49-14.499 14.5h-0.001z"></path>
<path d="M18.53 8.97c-0.136-0.136-0.323-0.219-0.53-0.219s-0.394 0.084-0.53 0.219v0l-6.5 6.5c-0.136 0.136-0.219 0.323-0.219 0.53s0.084 0.394 0.219 0.53v0l6.5 6.5c0.134 0.125 0.314 0.201 0.511 0.201 0.414 0 0.75-0.336 0.75-0.75 0-0.198-0.077-0.378-0.202-0.512l0 0-5.97-5.97 5.97-5.97c0.136-0.136 0.219-0.323 0.219-0.53s-0.084-0.394-0.219-0.53v0z"></path>
</symbol>
<symbol id="icon-arrow-right" viewBox="0 0 32 32">
<path d="M16 0c-8.837 0-16 7.163-16 16s7.163 16 16 16c8.837 0 16-7.163 16-16v0c-0.010-8.833-7.167-15.99-15.999-16h-0.001zM16 30.5c-8.008 0-14.5-6.492-14.5-14.5s6.492-14.5 14.5-14.5c8.008 0 14.5 6.492 14.5 14.5v0c-0.010 8.004-6.496 14.49-14.499 14.5h-0.001z"></path>
<path d="M14.53 8.97c-0.134-0.125-0.313-0.201-0.511-0.201-0.414 0-0.75 0.336-0.75 0.75 0 0.198 0.077 0.378 0.202 0.512l-0-0 5.97 5.97-5.97 5.97c-0.147 0.137-0.239 0.332-0.239 0.549 0 0.414 0.336 0.75 0.75 0.75 0.216 0 0.411-0.092 0.548-0.238l0-0 6.5-6.5c0.136-0.136 0.219-0.323 0.219-0.53s-0.084-0.394-0.219-0.53v0z"></path>
</symbol>
</defs>
</svg>
